<svg xmlns="http://www.w3.org/2000/svg" width="22" height="22" fill="none"><path fill="#F25F4C" d="M12.276 4.721a1.579 1.579 0 0 0-3.158 0H8.066a2.631 2.631 0 1 1 5.262 0h4.737a.526.526 0 1 1 0 1.053h-.583l-1.364 11.82a2.105 2.105 0 0 1-2.092 1.862H7.368a2.105 2.105 0 0 1-2.091-1.863L3.912 5.773H3.33a.526.526 0 0 1-.518-.43l-.009-.096a.526.526 0 0 1 .527-.526h8.946Zm4.145 1.053H4.973l1.349 11.698a1.053 1.053 0 0 0 1.046.932h6.658a1.052 1.052 0 0 0 1.045-.932l1.35-11.698Zm-7.303 2.63c.258 0 .474.164.518.379l.009.083v6.446c0 .254-.236.46-.527.46-.257 0-.473-.163-.517-.377l-.009-.084V8.867c0-.255.236-.461.526-.461v-.001Zm3.158 0c.258 0 .474.164.518.379l.008.083v6.446c0 .254-.236.46-.526.46-.258 0-.474-.163-.518-.377l-.008-.084V8.867c0-.255.236-.461.526-.461v-.001Z"/></svg>